<svg width="68" height="68" viewBox="0 0 68 68" fill="none" xmlns="http://www.w3.org/2000/svg">
<path fill-rule="evenodd" clip-rule="evenodd" d="M46.3948 9.92923C44.3204 9.92923 42.3343 10.7504 40.8725 12.2069C39.4112 13.6628 38.5933 15.6339 38.5933 17.6857H29.6098C29.6098 13.2406 31.3822 8.98098 34.5318 5.84291C37.6809 2.70539 41.9485 0.945711 46.3948 0.945711C50.8411 0.945711 55.1087 2.70539 58.2577 5.84291C61.4073 8.98098 63.1798 13.2406 63.1798 17.6857V37.589H54.1963V17.6857C54.1963 15.6339 53.3784 13.6628 51.9171 12.2069C50.4553 10.7504 48.4692 9.92923 46.3948 9.92923ZM34.1016 29.8326C32.0272 29.8326 30.0411 30.6537 28.5793 32.1102C27.118 33.5661 26.3001 35.5372 26.3001 37.589H17.3199H17.3166C17.3166 33.144 19.089 28.8843 22.2386 25.7462C25.3877 22.6087 29.6552 20.849 34.1016 20.849C38.5479 20.849 42.8155 22.6087 45.9645 25.7462C49.1141 28.8843 50.8866 33.144 50.8866 37.589H41.903C41.903 35.5372 41.0851 33.5661 39.6239 32.1102C38.1621 30.6537 36.176 29.8326 34.1016 29.8326ZM17.5139 40.1269C18.0528 43.6313 19.6982 46.8973 22.242 49.4317C25.391 52.5693 29.6586 54.3289 34.1049 54.3289C38.5512 54.3289 42.8188 52.5693 45.9678 49.4317C48.5116 46.8973 50.157 43.6313 50.6959 40.1269H41.4769C41.0953 41.2225 40.4677 42.2304 39.6272 43.0678C38.1654 44.5242 36.1793 45.3454 34.1049 45.3454C32.0305 45.3454 30.0444 44.5242 28.5826 43.0678C27.7421 42.2304 27.1144 41.2225 26.7329 40.1269H17.5139ZM63.1887 40.1269H54.2046L54.2046 58.0702L13.7946 58.07L13.7947 17.6277L27.0735 17.6277C27.083 14.4647 27.8714 11.3852 29.3307 8.64365L4.81059 8.64351L4.81055 67.0541L63.1887 67.0543L63.1887 40.1269Z" fill="#667EEA"/>
</svg>
